<svg xmlns="http://www.w3.org/2000/svg" xmlns:xlink="http://www.w3.org/1999/xlink" id="processonSvg1000" viewBox="27.5 82.0 1094.5 798.625" width="1094.5" height="798.625"><defs id="ProcessOnDefs1001"><marker id="ProcessOnMarker1031" markerUnits="userSpaceOnUse" orient="auto" markerWidth="16.23606797749979" markerHeight="10.550836550532098" viewBox="-1.0 -1.3763819204711736 16.23606797749979 10.550836550532098" refX="-1.0" refY="3.8990363547948754"><path id="ProcessOnPath1032" d="M12.0 3.8990363547948754L0.0 7.798072709589751V0.0Z" stroke="#323232" stroke-width="2.0" fill="#323232" transform="matrix(1.0,0.0,0.0,1.0,0.0,0.0)"/></marker><marker id="ProcessOnMarker1035" markerUnits="userSpaceOnUse" orient="auto" markerWidth="16.23606797749979" markerHeight="10.550836550532098" viewBox="-1.0 -1.3763819204711736 16.23606797749979 10.550836550532098" refX="-1.0" refY="3.8990363547948754"><path id="ProcessOnPath1036" d="M12.0 3.8990363547948754L0.0 7.798072709589751V0.0Z" stroke="#323232" stroke-width="2.0" fill="#323232" transform="matrix(1.0,0.0,0.0,1.0,0.0,0.0)"/></marker><marker id="ProcessOnMarker1039" markerUnits="userSpaceOnUse" orient="auto" markerWidth="16.23606797749979" markerHeight="10.550836550532098" viewBox="-1.0 -1.3763819204711736 16.23606797749979 10.550836550532098" refX="-1.0" refY="3.8990363547948754"><path id="ProcessOnPath1040" d="M12.0 3.8990363547948754L0.0 7.798072709589751V0.0Z" stroke="#323232" stroke-width="2.0" fill="#323232" transform="matrix(1.0,0.0,0.0,1.0,0.0,0.0)"/></marker><marker id="ProcessOnMarker1043" markerUnits="userSpaceOnUse" orient="auto" markerWidth="16.23606797749979" markerHeight="10.550836550532098" viewBox="-1.0 -1.3763819204711736 16.23606797749979 10.550836550532098" refX="-1.0" refY="3.8990363547948754"><path id="ProcessOnPath1044" d="M12.0 3.8990363547948754L0.0 7.798072709589751V0.0Z" stroke="#323232" stroke-width="2.0" fill="#323232" transform="matrix(1.0,0.0,0.0,1.0,0.0,0.0)"/></marker><marker id="ProcessOnMarker1047" markerUnits="userSpaceOnUse" orient="auto" markerWidth="16.23606797749979" markerHeight="10.550836550532098" viewBox="-1.0 -1.3763819204711736 16.23606797749979 10.550836550532098" refX="-1.0" refY="3.8990363547948754"><path id="ProcessOnPath1048" d="M12.0 3.8990363547948754L0.0 7.798072709589751V0.0Z" stroke="#323232" stroke-width="2.0" fill="#323232" transform="matrix(1.0,0.0,0.0,1.0,0.0,0.0)"/></marker><marker id="ProcessOnMarker1051" markerUnits="userSpaceOnUse" orient="auto" markerWidth="16.23606797749979" markerHeight="10.550836550532098" viewBox="-1.0 -1.3763819204711736 16.23606797749979 10.550836550532098" refX="-1.0" refY="3.8990363547948754"><path id="ProcessOnPath1052" d="M12.0 3.8990363547948754L0.0 7.798072709589751V0.0Z" stroke="#323232" stroke-width="2.0" fill="#323232" transform="matrix(1.0,0.0,0.0,1.0,0.0,0.0)"/></marker><marker id="ProcessOnMarker1077" markerUnits="userSpaceOnUse" orient="auto" markerWidth="16.23606797749979" markerHeight="10.550836550532098" viewBox="-1.0 -1.3763819204711736 16.23606797749979 10.550836550532098" refX="-1.0" refY="3.8990363547948754"><path id="ProcessOnPath1078" d="M12.0 3.8990363547948754L0.0 7.798072709589751V0.0Z" stroke="#323232" stroke-width="2.0" fill="#323232" transform="matrix(1.0,0.0,0.0,1.0,0.0,0.0)"/></marker><marker id="ProcessOnMarker1113" markerUnits="userSpaceOnUse" orient="auto" markerWidth="16.23606797749979" markerHeight="10.550836550532098" viewBox="-1.0 -1.3763819204711736 16.23606797749979 10.550836550532098" refX="-1.0" refY="3.8990363547948754"><path id="ProcessOnPath1114" d="M12.0 3.8990363547948754L0.0 7.798072709589751V0.0Z" stroke="#323232" stroke-width="2.0" fill="#323232" transform="matrix(1.0,0.0,0.0,1.0,0.0,0.0)"/></marker><marker id="ProcessOnMarker1140" markerUnits="userSpaceOnUse" orient="auto" markerWidth="16.23606797749979" markerHeight="10.550836550532098" viewBox="-1.0 -1.3763819204711736 16.23606797749979 10.550836550532098" refX="-1.0" refY="3.8990363547948754"><path id="ProcessOnPath1141" d="M12.0 3.8990363547948754L0.0 7.798072709589751V0.0Z" stroke="#323232" stroke-width="2.0" fill="#323232" transform="matrix(1.0,0.0,0.0,1.0,0.0,0.0)"/></marker></defs><g id="ProcessOnG1002"><path id="ProcessOnPath1003" d="M27.5 82.0H1122.0V880.625H27.5V82.0Z" fill="none"/><g id="ProcessOnG1004"><g id="ProcessOnG1005" transform="matrix(1.0,0.0,0.0,1.0,503.0,137.0)" opacity="1.0"><path id="ProcessOnPath1006" d="M0.0 4.0Q0.0 0.0 4.0 0.0L96.0 0.0Q100.0 0.0 100.0 4.0L100.0 66.0Q100.0 70.0 96.0 70.0L4.0 70.0Q0.0 70.0 0.0 66.0Z" stroke="#323232" stroke-width="2.0" stroke-dasharray="none" opacity="1.0" fill="#ffffff"/><g id="ProcessOnG1007" transform="matrix(1.0,0.0,0.0,1.0,10.0,26.875)"><text id="ProcessOnText1008" fill="#000000" font-size="13" x="39.0" y="13.325" font-family="微软雅黑" font-weight="normal" font-style="normal" text-decoration="none" family="微软雅黑" text-anchor="middle" size="13">Vue</text></g></g><g id="ProcessOnG1009" transform="matrix(1.0,0.0,0.0,1.0,315.5,259.0)" opacity="1.0"><path id="ProcessOnPath1010" d="M0.0 4.0Q0.0 0.0 4.0 0.0L96.0 0.0Q100.0 0.0 100.0 4.0L100.0 66.0Q100.0 70.0 96.0 70.0L4.0 70.0Q0.0 70.0 0.0 66.0Z" stroke="#323232" stroke-width="2.0" stroke-dasharray="none" opacity="1.0" fill="#ffffff"/><g id="ProcessOnG1011" transform="matrix(1.0,0.0,0.0,1.0,10.0,26.875)"><text id="ProcessOnText1012" fill="#000000" font-size="13" x="39.0" y="13.325" font-family="微软雅黑" font-weight="normal" font-style="normal" text-decoration="none" family="微软雅黑" text-anchor="middle" size="13">observer</text></g></g><g id="ProcessOnG1013" transform="matrix(1.0,0.0,0.0,1.0,664.0,259.0)" opacity="1.0"><path id="ProcessOnPath1014" d="M0.0 4.0Q0.0 0.0 4.0 0.0L96.0 0.0Q100.0 0.0 100.0 4.0L100.0 66.0Q100.0 70.0 96.0 70.0L4.0 70.0Q0.0 70.0 0.0 66.0Z" stroke="#323232" stroke-width="2.0" stroke-dasharray="none" opacity="1.0" fill="#ffffff"/><g id="ProcessOnG1015" transform="matrix(1.0,0.0,0.0,1.0,10.0,26.875)"><text id="ProcessOnText1016" fill="#000000" font-size="13" x="39.0" y="13.325" font-family="微软雅黑" font-weight="normal" font-style="normal" text-decoration="none" family="微软雅黑" text-anchor="middle" size="13">compile</text></g></g><g id="ProcessOnG1017" transform="matrix(1.0,0.0,0.0,1.0,315.5,436.0)" opacity="1.0"><path id="ProcessOnPath1018" d="M0.0 4.0Q0.0 0.0 4.0 0.0L96.0 0.0Q100.0 0.0 100.0 4.0L100.0 66.0Q100.0 70.0 96.0 70.0L4.0 70.0Q0.0 70.0 0.0 66.0Z" stroke="#323232" stroke-width="2.0" stroke-dasharray="none" opacity="1.0" fill="#ffffff"/><g id="ProcessOnG1019" transform="matrix(1.0,0.0,0.0,1.0,10.0,26.875)"><text id="ProcessOnText1020" fill="#000000" font-size="13" x="39.0" y="13.325" font-family="微软雅黑" font-weight="normal" font-style="normal" text-decoration="none" family="微软雅黑" text-anchor="middle" size="13">dep</text></g></g><g id="ProcessOnG1021" transform="matrix(1.0,0.0,0.0,1.0,664.0,436.0)" opacity="1.0"><path id="ProcessOnPath1022" d="M0.0 4.0Q0.0 0.0 4.0 0.0L96.0 0.0Q100.0 0.0 100.0 4.0L100.0 66.0Q100.0 70.0 96.0 70.0L4.0 70.0Q0.0 70.0 0.0 66.0Z" stroke="#323232" stroke-width="2.0" stroke-dasharray="none" opacity="1.0" fill="#ffffff"/><g id="ProcessOnG1023" transform="matrix(1.0,0.0,0.0,1.0,10.0,26.875)"><text id="ProcessOnText1024" fill="#000000" font-size="13" x="39.0" y="13.325" font-family="微软雅黑" font-weight="normal" font-style="normal" text-decoration="none" family="微软雅黑" text-anchor="middle" size="13">directive</text></g></g><g id="ProcessOnG1025" transform="matrix(1.0,0.0,0.0,1.0,503.0,563.0)" opacity="1.0"><path id="ProcessOnPath1026" d="M0.0 4.0Q0.0 0.0 4.0 0.0L96.0 0.0Q100.0 0.0 100.0 4.0L100.0 66.0Q100.0 70.0 96.0 70.0L4.0 70.0Q0.0 70.0 0.0 66.0Z" stroke="#323232" stroke-width="2.0" stroke-dasharray="none" opacity="1.0" fill="#ffffff"/><g id="ProcessOnG1027" transform="matrix(1.0,0.0,0.0,1.0,10.0,26.875)"><text id="ProcessOnText1028" fill="#000000" font-size="13" x="39.0" y="13.325" font-family="微软雅黑" font-weight="normal" font-style="normal" text-decoration="none" family="微软雅黑" text-anchor="middle" size="13">watcher</text></g></g><g id="ProcessOnG1029"><path id="ProcessOnPath1030" d="M603.0 172.0L714.0 172.0L714.0 243.7639320225002" stroke="#323232" stroke-width="2.0" stroke-dasharray="none" fill="none" marker-end="url(#ProcessOnMarker1031)"/></g><g id="ProcessOnG1033"><path id="ProcessOnPath1034" d="M503.0 172.0L365.5 172.0L365.5 243.7639320225002" stroke="#323232" stroke-width="2.0" stroke-dasharray="none" fill="none" marker-end="url(#ProcessOnMarker1035)"/></g><g id="ProcessOnG1037"><path id="ProcessOnPath1038" d="M365.5 329.0L365.5 382.5L365.5 382.5L365.5 420.7639320225002" stroke="#323232" stroke-width="2.0" stroke-dasharray="none" fill="none" marker-end="url(#ProcessOnMarker1039)"/></g><g id="ProcessOnG1041"><path id="ProcessOnPath1042" d="M714.0 329.0L714.0 382.5L714.0 382.5L714.0 420.7639320225002" stroke="#323232" stroke-width="2.0" stroke-dasharray="none" fill="none" marker-end="url(#ProcessOnMarker1043)"/></g><g id="ProcessOnG1045"><path id="ProcessOnPath1046" d="M714.0 506.0L714.0 598.0L618.2360679774998 598.0" stroke="#323232" stroke-width="2.0" stroke-dasharray="none" fill="none" marker-end="url(#ProcessOnMarker1047)"/></g><g id="ProcessOnG1049"><path id="ProcessOnPath1050" d="M365.5 506.0L365.5 598.0L487.7639320225002 598.0" stroke="#323232" stroke-width="2.0" stroke-dasharray="none" fill="none" marker-end="url(#ProcessOnMarker1051)"/></g><g id="ProcessOnG1053" transform="matrix(1.0,0.0,0.0,1.0,299.0,102.0)" opacity="1.0"><path id="ProcessOnPath1054" d="M0.0 0.0L187.0 0.0L187.0 64.0L0.0 64.0Z" stroke="none" stroke-width="0.0" stroke-dasharray="none" opacity="1.0" fill="none"/><g id="ProcessOnG1055" transform="matrix(1.0,0.0,0.0,1.0,0.0,13.25)"><text id="ProcessOnText1056" fill="#000000" font-size="15" x="0.0" y="15.375" font-family="微软雅黑" font-weight="normal" font-style="normal" text-decoration="none" family="微软雅黑" text-anchor="start" size="15">通过initData initMethod</text><text id="ProcessOnText1057" fill="#000000" font-size="15" x="0.0" y="34.125" font-family="微软雅黑" font-weight="normal" font-style="normal" text-decoration="none" family="微软雅黑" text-anchor="start" size="15">将数据合并到Vue实例上</text></g></g><g id="ProcessOnG1058" transform="matrix(1.0,0.0,0.0,1.0,47.5,161.0)" opacity="1.0"><path id="ProcessOnPath1059" d="M0.0 0.0L229.0 0.0L229.0 275.0L0.0 275.0Z" stroke="none" stroke-width="0.0" stroke-dasharray="none" opacity="1.0" fill="none"/><g id="ProcessOnG1060" transform="matrix(1.0,0.0,0.0,1.0,0.0,6.25)"><text id="ProcessOnText1061" fill="#000000" font-size="15" x="0.0" y="15.375" font-family="微软雅黑" font-weight="normal" font-style="normal" text-decoration="none" family="微软雅黑" text-anchor="start" size="15">observer对每一个数据的getter</text><text id="ProcessOnText1062" fill="#000000" font-size="15" x="0.0" y="34.125" font-family="微软雅黑" font-weight="normal" font-style="normal" text-decoration="none" family="微软雅黑" text-anchor="start" size="15">和settet作了一些设置</text><text id="ProcessOnText1063" fill="#000000" font-size="15" x="0.0" y="52.875" font-family="微软雅黑" font-weight="normal" font-style="normal" text-decoration="none" family="微软雅黑" text-anchor="start" size="15">每一个key都new一个dep实例</text><text id="ProcessOnText1064" fill="#000000" font-size="15" x="0.0" y="71.625" font-family="微软雅黑" font-weight="normal" font-style="normal" text-decoration="none" family="微软雅黑" text-anchor="start" size="15">用来收集watcher实例</text><text id="ProcessOnText1065" fill="#000000" font-size="15" x="0.0" y="90.375" font-family="微软雅黑" font-weight="normal" font-style="normal" text-decoration="none" family="微软雅黑" text-anchor="start" size="15"></text><text id="ProcessOnText1066" fill="#000000" font-size="15" x="0.0" y="109.125" font-family="微软雅黑" font-weight="normal" font-style="normal" text-decoration="none" family="微软雅黑" text-anchor="start" size="15">当访问一个key时会触发getter将</text><text id="ProcessOnText1067" fill="#000000" font-size="15" x="0.0" y="127.875" font-family="微软雅黑" font-weight="normal" font-style="normal" text-decoration="none" family="微软雅黑" text-anchor="start" size="15">值返回并通过dep收集当前watch</text><text id="ProcessOnText1068" fill="#000000" font-size="15" x="0.0" y="146.625" font-family="微软雅黑" font-weight="normal" font-style="normal" text-decoration="none" family="微软雅黑" text-anchor="start" size="15">er实例</text><text id="ProcessOnText1069" fill="#000000" font-size="15" x="0.0" y="165.375" font-family="微软雅黑" font-weight="normal" font-style="normal" text-decoration="none" family="微软雅黑" text-anchor="start" size="15"></text><text id="ProcessOnText1070" fill="#000000" font-size="15" x="0.0" y="184.125" font-family="微软雅黑" font-weight="normal" font-style="normal" text-decoration="none" family="微软雅黑" text-anchor="start" size="15">当给一个key赋给新值时会触发de</text><text id="ProcessOnText1071" fill="#000000" font-size="15" x="0.0" y="202.875" font-family="微软雅黑" font-weight="normal" font-style="normal" text-decoration="none" family="微软雅黑" text-anchor="start" size="15">p的notify方法 通知dep收集的所</text><text id="ProcessOnText1072" fill="#000000" font-size="15" x="0.0" y="221.625" font-family="微软雅黑" font-weight="normal" font-style="normal" text-decoration="none" family="微软雅黑" text-anchor="start" size="15">有watcher实例调用update方法</text><text id="ProcessOnText1073" fill="#000000" font-size="15" x="0.0" y="240.375" font-family="微软雅黑" font-weight="normal" font-style="normal" text-decoration="none" family="微软雅黑" text-anchor="start" size="15">进行数据更新并渲染DOM</text><text id="ProcessOnText1074" fill="#000000" font-size="15" x="0.0" y="259.125" font-family="微软雅黑" font-weight="normal" font-style="normal" text-decoration="none" family="微软雅黑" text-anchor="start" size="15"></text></g></g><g id="ProcessOnG1075"><path id="ProcessOnPath1076" d="M315.5 471.0L285.5 471.0L285.5 294.0L300.2639320225002 294.0" stroke="#323232" stroke-width="2.0" stroke-dasharray="none" fill="none" marker-end="url(#ProcessOnMarker1077)"/></g><g id="ProcessOnG1079" transform="matrix(1.0,0.0,0.0,1.0,84.0,501.0)" opacity="1.0"><path id="ProcessOnPath1080" d="M0.0 0.0L212.0 0.0L212.0 101.0L0.0 101.0Z" stroke="none" stroke-width="0.0" stroke-dasharray="none" opacity="1.0" fill="none"/><g id="ProcessOnG1081" transform="matrix(1.0,0.0,0.0,1.0,0.0,-5.75)"><text id="ProcessOnText1082" fill="#000000" font-size="15" x="0.0" y="15.375" font-family="微软雅黑" font-weight="normal" font-style="normal" text-decoration="none" family="微软雅黑" text-anchor="start" size="15">dep用来在observer和watche</text><text id="ProcessOnText1083" fill="#000000" font-size="15" x="0.0" y="34.125" font-family="微软雅黑" font-weight="normal" font-style="normal" text-decoration="none" family="微软雅黑" text-anchor="start" size="15">r之间建立桥梁</text><text id="ProcessOnText1084" fill="#000000" font-size="15" x="0.0" y="52.875" font-family="微软雅黑" font-weight="normal" font-style="normal" text-decoration="none" family="微软雅黑" text-anchor="start" size="15">主要功能为收集watcher实例和</text><text id="ProcessOnText1085" fill="#000000" font-size="15" x="0.0" y="71.625" font-family="微软雅黑" font-weight="normal" font-style="normal" text-decoration="none" family="微软雅黑" text-anchor="start" size="15">通知watcher进行update方法</text><text id="ProcessOnText1086" fill="#000000" font-size="15" x="0.0" y="90.375" font-family="微软雅黑" font-weight="normal" font-style="normal" text-decoration="none" family="微软雅黑" text-anchor="start" size="15">更新</text><text id="ProcessOnText1087" fill="#000000" font-size="15" x="0.0" y="109.125" font-family="微软雅黑" font-weight="normal" font-style="normal" text-decoration="none" family="微软雅黑" text-anchor="start" size="15"></text></g></g><g id="ProcessOnG1088" transform="matrix(1.0,0.0,0.0,1.0,784.0,243.5)" opacity="1.0"><path id="ProcessOnPath1089" d="M0.0 0.0L215.0 0.0L215.0 110.0L0.0 110.0Z" stroke="none" stroke-width="0.0" stroke-dasharray="none" opacity="1.0" fill="none"/><g id="ProcessOnG1090" transform="matrix(1.0,0.0,0.0,1.0,0.0,-10.625)"><text id="ProcessOnText1091" fill="#000000" font-size="15" x="0.0" y="15.375" font-family="微软雅黑" font-weight="normal" font-style="normal" text-decoration="none" family="微软雅黑" text-anchor="start" size="15">compile解析每一个DOM元素</text><text id="ProcessOnText1092" fill="#000000" font-size="15" x="0.0" y="34.125" font-family="微软雅黑" font-weight="normal" font-style="normal" text-decoration="none" family="微软雅黑" text-anchor="start" size="15">节点 对元素节点上的每一条指</text><text id="ProcessOnText1093" fill="#000000" font-size="15" x="0.0" y="52.875" font-family="微软雅黑" font-weight="normal" font-style="normal" text-decoration="none" family="微软雅黑" text-anchor="start" size="15">令建立一条描述符descriptor</text><text id="ProcessOnText1094" fill="#000000" font-size="15" x="0.0" y="71.625" font-family="微软雅黑" font-weight="normal" font-style="normal" text-decoration="none" family="微软雅黑" text-anchor="start" size="15">描述符包含指令的节点名称 指</text><text id="ProcessOnText1095" fill="#000000" font-size="15" x="0.0" y="90.375" font-family="微软雅黑" font-weight="normal" font-style="normal" text-decoration="none" family="微软雅黑" text-anchor="start" size="15">令名称 指令对应的处理函数等</text><text id="ProcessOnText1096" fill="#000000" font-size="15" x="0.0" y="109.125" font-family="微软雅黑" font-weight="normal" font-style="normal" text-decoration="none" family="微软雅黑" text-anchor="start" size="15">等</text><text id="ProcessOnText1097" fill="#000000" font-size="15" x="0.0" y="127.875" font-family="微软雅黑" font-weight="normal" font-style="normal" text-decoration="none" family="微软雅黑" text-anchor="start" size="15"> </text></g></g><g id="ProcessOnG1098" transform="matrix(1.0,0.0,0.0,1.0,853.0,394.0)" opacity="1.0"><path id="ProcessOnPath1099" d="M0.0 0.0L223.0 0.0L223.0 102.0L0.0 102.0Z" stroke="none" stroke-width="0.0" stroke-dasharray="none" opacity="1.0" fill="none"/><g id="ProcessOnG1100" transform="matrix(1.0,0.0,0.0,1.0,0.0,-5.25)"><text id="ProcessOnText1101" fill="#000000" font-size="15" x="0.0" y="15.375" font-family="微软雅黑" font-weight="normal" font-style="normal" text-decoration="none" family="微软雅黑" text-anchor="start" size="15">directive对每一条描述符descri</text><text id="ProcessOnText1102" fill="#000000" font-size="15" x="0.0" y="34.125" font-family="微软雅黑" font-weight="normal" font-style="normal" text-decoration="none" family="微软雅黑" text-anchor="start" size="15">ptor都建立一条对应的指令 在指</text><text id="ProcessOnText1103" fill="#000000" font-size="15" x="0.0" y="52.875" font-family="微软雅黑" font-weight="normal" font-style="normal" text-decoration="none" family="微软雅黑" text-anchor="start" size="15">令里会建立一个watcher实例</text><text id="ProcessOnText1104" fill="#000000" font-size="15" x="0.0" y="71.625" font-family="微软雅黑" font-weight="normal" font-style="normal" text-decoration="none" family="微软雅黑" text-anchor="start" size="15">还有要监听的表达式 并将对应的</text><text id="ProcessOnText1105" fill="#000000" font-size="15" x="0.0" y="90.375" font-family="微软雅黑" font-weight="normal" font-style="normal" text-decoration="none" family="微软雅黑" text-anchor="start" size="15">处理函数当作参数传给watcher</text><text id="ProcessOnText1106" fill="#000000" font-size="15" x="0.0" y="109.125" font-family="微软雅黑" font-weight="normal" font-style="normal" text-decoration="none" family="微软雅黑" text-anchor="start" size="15"></text></g></g><g id="ProcessOnG1107" transform="matrix(1.0,0.0,0.0,1.0,784.0,609.0)" opacity="1.0"><path id="ProcessOnPath1108" d="M0.0 4.0Q0.0 0.0 4.0 0.0L96.0 0.0Q100.0 0.0 100.0 4.0L100.0 66.0Q100.0 70.0 96.0 70.0L4.0 70.0Q0.0 70.0 0.0 66.0Z" stroke="#323232" stroke-width="2.0" stroke-dasharray="none" opacity="1.0" fill="#ffffff"/><g id="ProcessOnG1109" transform="matrix(1.0,0.0,0.0,1.0,10.0,26.875)"><text id="ProcessOnText1110" fill="#000000" font-size="13" x="39.0" y="13.325" font-family="微软雅黑" font-weight="normal" font-style="normal" text-decoration="none" family="微软雅黑" text-anchor="middle" size="13">directives</text></g></g><g id="ProcessOnG1111"><path id="ProcessOnPath1112" d="M834.0 609.0L834.0 471.0L779.2360679774998 471.0" stroke="#323232" stroke-width="2.0" stroke-dasharray="none" fill="none" marker-end="url(#ProcessOnMarker1113)"/></g><g id="ProcessOnG1115" transform="matrix(1.0,0.0,0.0,1.0,912.0,584.0)" opacity="1.0"><path id="ProcessOnPath1116" d="M0.0 0.0L190.0 0.0L190.0 107.0L0.0 107.0Z" stroke="none" stroke-width="0.0" stroke-dasharray="none" opacity="1.0" fill="none"/><g id="ProcessOnG1117" transform="matrix(1.0,0.0,0.0,1.0,0.0,-2.75)"><text id="ProcessOnText1118" fill="#000000" font-size="15" x="0.0" y="15.375" font-family="微软雅黑" font-weight="normal" font-style="normal" text-decoration="none" family="微软雅黑" text-anchor="start" size="15">directives是和指令对应的</text><text id="ProcessOnText1119" fill="#000000" font-size="15" x="0.0" y="34.125" font-family="微软雅黑" font-weight="normal" font-style="normal" text-decoration="none" family="微软雅黑" text-anchor="start" size="15">处理函数集合</text><text id="ProcessOnText1120" fill="#000000" font-size="15" x="0.0" y="52.875" font-family="微软雅黑" font-weight="normal" font-style="normal" text-decoration="none" family="微软雅黑" text-anchor="start" size="15">例如v-if指令有对应的if处理</text><text id="ProcessOnText1121" fill="#000000" font-size="15" x="0.0" y="71.625" font-family="微软雅黑" font-weight="normal" font-style="normal" text-decoration="none" family="微软雅黑" text-anchor="start" size="15">函数</text><text id="ProcessOnText1122" fill="#000000" font-size="15" x="0.0" y="90.375" font-family="微软雅黑" font-weight="normal" font-style="normal" text-decoration="none" family="微软雅黑" text-anchor="start" size="15">通过和directive结合使用</text><text id="ProcessOnText1123" fill="#000000" font-size="15" x="0.0" y="109.125" font-family="微软雅黑" font-weight="normal" font-style="normal" text-decoration="none" family="微软雅黑" text-anchor="start" size="15"></text></g></g><g id="ProcessOnG1124" transform="matrix(1.0,0.0,0.0,1.0,372.0,665.0)" opacity="1.0"><path id="ProcessOnPath1125" d="M0.0 0.0L288.0 0.0L288.0 185.0L0.0 185.0Z" stroke="none" stroke-width="0.0" stroke-dasharray="none" opacity="1.0" fill="none"/><g id="ProcessOnG1126" transform="matrix(1.0,0.0,0.0,1.0,0.0,-10.625)"><text id="ProcessOnText1127" fill="#000000" font-size="15" x="0.0" y="15.375" font-family="微软雅黑" font-weight="normal" font-style="normal" text-decoration="none" family="微软雅黑" text-anchor="start" size="15">指令创建watcher实例时会手动触发一次w</text><text id="ProcessOnText1128" fill="#000000" font-size="15" x="0.0" y="34.125" font-family="微软雅黑" font-weight="normal" font-style="normal" text-decoration="none" family="微软雅黑" text-anchor="start" size="15">atcher的get方法 对要监听的表达式或函数</text><text id="ProcessOnText1129" fill="#000000" font-size="15" x="0.0" y="52.875" font-family="微软雅黑" font-weight="normal" font-style="normal" text-decoration="none" family="微软雅黑" text-anchor="start" size="15">进行第一次求值 求值会触发getter getter</text><text id="ProcessOnText1130" fill="#000000" font-size="15" x="0.0" y="71.625" font-family="微软雅黑" font-weight="normal" font-style="normal" text-decoration="none" family="微软雅黑" text-anchor="start" size="15">里的dep实例会将当前watcher实例收集起</text><text id="ProcessOnText1131" fill="#000000" font-size="15" x="0.0" y="90.375" font-family="微软雅黑" font-weight="normal" font-style="normal" text-decoration="none" family="微软雅黑" text-anchor="start" size="15">来 求值完了之后将值传给watcher的updat</text><text id="ProcessOnText1132" fill="#000000" font-size="15" x="0.0" y="109.125" font-family="微软雅黑" font-weight="normal" font-style="normal" text-decoration="none" family="微软雅黑" text-anchor="start" size="15">e方法进行DOM渲染更新 这就是第一次渲</text><text id="ProcessOnText1133" fill="#000000" font-size="15" x="0.0" y="127.875" font-family="微软雅黑" font-weight="normal" font-style="normal" text-decoration="none" family="微软雅黑" text-anchor="start" size="15">染了</text><text id="ProcessOnText1134" fill="#000000" font-size="15" x="0.0" y="146.625" font-family="微软雅黑" font-weight="normal" font-style="normal" text-decoration="none" family="微软雅黑" text-anchor="start" size="15"></text><text id="ProcessOnText1135" fill="#000000" font-size="15" x="0.0" y="165.375" font-family="微软雅黑" font-weight="normal" font-style="normal" text-decoration="none" family="微软雅黑" text-anchor="start" size="15">如果值改变了 也会触发watcher的update</text><text id="ProcessOnText1136" fill="#000000" font-size="15" x="0.0" y="184.125" font-family="微软雅黑" font-weight="normal" font-style="normal" text-decoration="none" family="微软雅黑" text-anchor="start" size="15">方法 进而重新渲染DOM</text><text id="ProcessOnText1137" fill="#000000" font-size="15" x="0.0" y="202.875" font-family="微软雅黑" font-weight="normal" font-style="normal" text-decoration="none" family="微软雅黑" text-anchor="start" size="15"></text></g></g><g id="ProcessOnG1138"><path id="ProcessOnPath1139" d="M553.0 563.0L553.0 471.0L430.7360679774998 471.0" stroke="#323232" stroke-width="2.0" stroke-dasharray="none" fill="none" marker-end="url(#ProcessOnMarker1140)"/></g><g id="ProcessOnG1142" transform="matrix(1.0,0.0,0.0,1.0,618.0,514.0)" opacity="1.0"><path id="ProcessOnPath1143" d="M0.0 0.0L84.0 0.0L84.0 49.0L0.0 49.0Z" stroke="none" stroke-width="0.0" stroke-dasharray="none" opacity="1.0" fill="none"/><g id="ProcessOnG1144" transform="matrix(1.0,0.0,0.0,1.0,0.0,8.25)"><text id="ProcessOnText1145" fill="#000000" font-size="13" x="41.0" y="13.325" font-family="微软雅黑" font-weight="normal" font-style="normal" text-decoration="none" family="微软雅黑" text-anchor="middle" size="13">在directive里</text><text id="ProcessOnText1146" fill="#000000" font-size="13" x="41.0" y="29.575" font-family="微软雅黑" font-weight="normal" font-style="normal" text-decoration="none" family="微软雅黑" text-anchor="middle" size="13">new Wathcer</text></g></g></g></g></svg>